<svg xmlns="http://www.w3.org/2000/svg" width="1200" height="1517" viewBox="0 0 1200 1517" role="img" aria-labelledby="title desc"><title id="title">Where communication occurs in a transformer layer</title><desc id="desc">Blue/orange: local compute · purple: final sums · thin bypass: local residual</desc><metadata>{&quot;id&quot;:&quot;05-step-1&quot;,&quot;locale&quot;:&quot;en&quot;,&quot;kind&quot;:&quot;original educational diagram&quot;,&quot;sources&quot;:[]}</metadata><defs><marker id="arrow-ink" viewBox="0 0 10 10" refX="8" refY="5" markerWidth="6" markerHeight="6" orient="auto"><path d="M1 1 L9 5 L1 9" fill="none" stroke="#182C40" stroke-width="1.6"/></marker><marker id="arrow-muted" viewBox="0 0 10 10" refX="8" refY="5" markerWidth="6" markerHeight="6" orient="auto"><path d="M1 1 L9 5 L1 9" fill="none" stroke="#5C6C7C" stroke-width="1.6"/></marker><marker id="arrow-line" viewBox="0 0 10 10" refX="8" refY="5" markerWidth="6" markerHeight="6" orient="auto"><path d="M1 1 L9 5 L1 9" fill="none" stroke="#DCE4EC" stroke-width="1.6"/></marker><marker id="arrow-paper" viewBox="0 0 10 10" refX="8" refY="5" markerWidth="6" markerHeight="6" orient="auto"><path d="M1 1 L9 5 L1 9" fill="none" stroke="#FFFFFF" stroke-width="1.6"/></marker><marker id="arrow-blue" viewBox="0 0 10 10" refX="8" refY="5" markerWidth="6" markerHeight="6" orient="auto"><path d="M1 1 L9 5 L1 9" fill="none" stroke="#2470BB" stroke-width="1.6"/></marker><marker id="arrow-teal" viewBox="0 0 10 10" refX="8" refY="5" markerWidth="6" markerHeight="6" orient="auto"><path d="M1 1 L9 5 L1 9" fill="none" stroke="#287D78" stroke-width="1.6"/></marker><marker id="arrow-orange" viewBox="0 0 10 10" refX="8" refY="5" markerWidth="6" markerHeight="6" orient="auto"><path d="M1 1 L9 5 L1 9" fill="none" stroke="#B55B22" stroke-width="1.6"/></marker><marker id="arrow-purple" viewBox="0 0 10 10" refX="8" refY="5" markerWidth="6" markerHeight="6" orient="auto"><path d="M1 1 L9 5 L1 9" fill="none" stroke="#7954A3" stroke-width="1.6"/></marker><marker id="arrow-gray" viewBox="0 0 10 10" refX="8" refY="5" markerWidth="6" markerHeight="6" orient="auto"><path d="M1 1 L9 5 L1 9" fill="none" stroke="#657789" stroke-width="1.6"/></marker><marker id="arrow-red" viewBox="0 0 10 10" refX="8" refY="5" markerWidth="6" markerHeight="6" orient="auto"><path d="M1 1 L9 5 L1 9" fill="none" stroke="#B34242" stroke-width="1.6"/></marker><marker id="arrow-indigo" viewBox="0 0 10 10" refX="8" refY="5" markerWidth="6" markerHeight="6" orient="auto"><path d="M1 1 L9 5 L1 9" fill="none" stroke="#4C60A8" stroke-width="1.6"/></marker><marker id="arrow-slate" viewBox="0 0 10 10" refX="8" refY="5" markerWidth="6" markerHeight="6" orient="auto"><path d="M1 1 L9 5 L1 9" fill="none" stroke="#8191A0" stroke-width="1.6"/></marker><marker id="arrow-surface" viewBox="0 0 10 10" refX="8" refY="5" markerWidth="6" markerHeight="6" orient="auto"><path d="M1 1 L9 5 L1 9" fill="none" stroke="#F8FAFC" stroke-width="1.6"/></marker><marker id="ported-arrow" viewBox="0 0 10 10" refX="9" refY="5" markerWidth="7" markerHeight="7" orient="auto-start-reverse"><path d="M1 1 L9 5 L1 9" fill="none" stroke="#5C6C7C" stroke-width="1.5" /></marker></defs><style>text{font-family:Arial,"Apple SD Gothic Neo","Noto Sans KR",sans-serif}text[font-family]{font-family:Menlo,Consolas,monospace}path{stroke-linecap:round;stroke-linejoin:round}</style><rect width="100%" height="100%" fill="white"/><text x="48" y="49" fill="#2470BB" font-size="18" font-weight="600" text-anchor="start" data-max-width="1104">Figure 5</text><text x="48" y="99" fill="#182C40" font-size="36" font-weight="700" text-anchor="start" data-max-width="1104">Where communication occurs in a transformer layer</text><text x="48" y="141" fill="#5C6C7C" font-size="23" font-weight="400" text-anchor="start" data-max-width="1104">Blue/orange: local compute · purple: final sums · thin bypass: local residual</text><path d="M48,170 H1152" stroke="#DCE4EC" stroke-width="2"/><g transform="translate(48 206) scale(1)" data-panel="1"><g transform="translate(-48 -148)"><text x="48" y="150" font-size="22" fill="#182C40" font-weight="700" text-anchor="start">One transformer layer · basic TP forward pass · Pre-Norm example</text><rect x="48" y="177" width="528" height="1000" rx="10" fill="white" stroke="#2470BB" stroke-width="1.5"/><text x="72" y="211" font-size="24" fill="#2470BB" font-weight="700" text-anchor="start">GPU 0</text><text x="312" y="230" font-size="20" fill="#182C40" font-weight="700" text-anchor="middle">Same input X</text><rect x="276" y="245" width="18" height="18" fill="#F1F4F7" stroke="#aabcc9" stroke-width="1"/><rect x="294" y="245" width="18" height="18" fill="#F1F4F7" stroke="#aabcc9" stroke-width="1"/><rect x="312" y="245" width="18" height="18" fill="#F1F4F7" stroke="#aabcc9" stroke-width="1"/><rect x="330" y="245" width="18" height="18" fill="#F1F4F7" stroke="#aabcc9" stroke-width="1"/><rect x="276" y="263" width="18" height="18" fill="#F1F4F7" stroke="#aabcc9" stroke-width="1"/><rect x="294" y="263" width="18" height="18" fill="#F1F4F7" stroke="#aabcc9" stroke-width="1"/><rect x="312" y="263" width="18" height="18" fill="#F1F4F7" stroke="#aabcc9" stroke-width="1"/><rect x="330" y="263" width="18" height="18" fill="#F1F4F7" stroke="#aabcc9" stroke-width="1"/><rect x="104" y="314" width="426" height="56" rx="10" fill="#F1F4F7" stroke="#DCE4EC" stroke-width="1.5"/><text x="122" y="349" font-size="20" fill="#182C40" font-weight="400" text-anchor="start">Normalization (on each GPU)</text><rect x="104" y="390" width="426" height="56" rx="10" fill="#EDF5FD" stroke="#DCE4EC" stroke-width="1.5"/><text x="122" y="425" font-size="20" fill="#182C40" font-weight="700" text-anchor="start">QKV Projection · column split</text><rect x="417" y="400" width="9" height="9" fill="#EDF5FD" stroke="#2470BB" stroke-width="1"/><rect x="426" y="400" width="9" height="9" fill="#EDF5FD" stroke="#2470BB" stroke-width="1"/><rect x="417" y="409" width="9" height="9" fill="#EDF5FD" stroke="#2470BB" stroke-width="1"/><rect x="426" y="409" width="9" height="9" fill="#EDF5FD" stroke="#2470BB" stroke-width="1"/><rect x="417" y="418" width="9" height="9" fill="#EDF5FD" stroke="#2470BB" stroke-width="1"/><rect x="426" y="418" width="9" height="9" fill="#EDF5FD" stroke="#2470BB" stroke-width="1"/><rect x="417" y="427" width="9" height="9" fill="#EDF5FD" stroke="#2470BB" stroke-width="1"/><rect x="426" y="427" width="9" height="9" fill="#EDF5FD" stroke="#2470BB" stroke-width="1"/><rect x="444" y="400" width="9" height="9" fill="#EDF5FD" stroke="#2470BB" stroke-width="1"/><rect x="453" y="400" width="9" height="9" fill="#EDF5FD" stroke="#2470BB" stroke-width="1"/><rect x="444" y="409" width="9" height="9" fill="#EDF5FD" stroke="#2470BB" stroke-width="1"/><rect x="453" y="409" width="9" height="9" fill="#EDF5FD" stroke="#2470BB" stroke-width="1"/><rect x="444" y="418" width="9" height="9" fill="#EDF5FD" stroke="#2470BB" stroke-width="1"/><rect x="453" y="418" width="9" height="9" fill="#EDF5FD" stroke="#2470BB" stroke-width="1"/><rect x="444" y="427" width="9" height="9" fill="#EDF5FD" stroke="#2470BB" stroke-width="1"/><rect x="453" y="427" width="9" height="9" fill="#EDF5FD" stroke="#2470BB" stroke-width="1"/><rect x="471" y="400" width="9" height="9" fill="#EDF5FD" stroke="#2470BB" stroke-width="1"/><rect x="480" y="400" width="9" height="9" fill="#EDF5FD" stroke="#2470BB" stroke-width="1"/><rect x="471" y="409" width="9" height="9" fill="#EDF5FD" stroke="#2470BB" stroke-width="1"/><rect x="480" y="409" width="9" height="9" fill="#EDF5FD" stroke="#2470BB" stroke-width="1"/><rect x="471" y="418" width="9" height="9" fill="#EDF5FD" stroke="#2470BB" stroke-width="1"/><rect x="480" y="418" width="9" height="9" fill="#EDF5FD" stroke="#2470BB" stroke-width="1"/><rect x="471" y="427" width="9" height="9" fill="#EDF5FD" stroke="#2470BB" stroke-width="1"/><rect x="480" y="427" width="9" height="9" fill="#EDF5FD" stroke="#2470BB" stroke-width="1"/><rect x="104" y="466" width="426" height="56" rx="10" fill="#EDF5FD" stroke="#DCE4EC" stroke-width="1.5"/><text x="122" y="501" font-size="20" fill="#182C40" font-weight="700" text-anchor="start">Local head attention</text><rect x="417" y="476" width="11" height="11" fill="#EDF5FD" stroke="#2470BB" stroke-width="1"/><rect x="428" y="476" width="11" height="11" fill="#EDF5FD" stroke="#2470BB" stroke-width="1"/><rect x="417" y="487" width="11" height="11" fill="#EDF5FD" stroke="#2470BB" stroke-width="1"/><rect x="428" y="487" width="11" height="11" fill="#EDF5FD" stroke="#2470BB" stroke-width="1"/><rect x="104" y="542" width="426" height="56" rx="10" fill="#EDF5FD" stroke="#DCE4EC" stroke-width="1.5"/><text x="122" y="577" font-size="20" fill="#182C40" font-weight="700" text-anchor="start">Output Projection · row split</text><rect x="417" y="552" width="11" height="11" fill="#EDF5FD" stroke="#2470BB" stroke-width="1"/><rect x="428" y="552" width="11" height="11" fill="#EDF5FD" stroke="#2470BB" stroke-width="1"/><rect x="439" y="552" width="11" height="11" fill="#EDF5FD" stroke="#2470BB" stroke-width="1"/><rect x="450" y="552" width="11" height="11" fill="#EDF5FD" stroke="#2470BB" stroke-width="1"/><rect x="417" y="563" width="11" height="11" fill="#EDF5FD" stroke="#2470BB" stroke-width="1"/><rect x="428" y="563" width="11" height="11" fill="#EDF5FD" stroke="#2470BB" stroke-width="1"/><rect x="439" y="563" width="11" height="11" fill="#EDF5FD" stroke="#2470BB" stroke-width="1"/><rect x="450" y="563" width="11" height="11" fill="#EDF5FD" stroke="#2470BB" stroke-width="1"/><path d="M318,286 L318,303" fill="none" stroke="#5C6C7C" stroke-width="2" marker-end="url(#ported-arrow)"/><path d="M318,375 L318,379" fill="none" stroke="#5C6C7C" stroke-width="2" marker-end="url(#ported-arrow)"/><path d="M318,451 L318,455" fill="none" stroke="#5C6C7C" stroke-width="2" marker-end="url(#ported-arrow)"/><path d="M318,527 L318,531" fill="none" stroke="#5C6C7C" stroke-width="2" marker-end="url(#ported-arrow)"/><rect x="104" y="684" width="426" height="56" rx="10" fill="#F1F4F7" stroke="#DCE4EC" stroke-width="1.5"/><text x="122" y="719" font-size="20" fill="#182C40" font-weight="400" text-anchor="start">Add residual</text><rect x="104" y="760" width="426" height="56" rx="10" fill="#F1F4F7" stroke="#DCE4EC" stroke-width="1.5"/><text x="122" y="795" font-size="20" fill="#182C40" font-weight="400" text-anchor="start">Normalization (on each GPU)</text><rect x="104" y="836" width="426" height="56" rx="10" fill="#EDF5FD" stroke="#DCE4EC" stroke-width="1.5"/><text x="122" y="871" font-size="20" fill="#182C40" font-weight="700" text-anchor="start">MLP Linear 1 · column split</text><rect x="417" y="846" width="9" height="9" fill="#EDF5FD" stroke="#2470BB" stroke-width="1"/><rect x="426" y="846" width="9" height="9" fill="#EDF5FD" stroke="#2470BB" stroke-width="1"/><rect x="435" y="846" width="9" height="9" fill="#EDF5FD" stroke="#2470BB" stroke-width="1"/><rect x="444" y="846" width="9" height="9" fill="#EDF5FD" stroke="#2470BB" stroke-width="1"/><rect x="417" y="855" width="9" height="9" fill="#EDF5FD" stroke="#2470BB" stroke-width="1"/><rect x="426" y="855" width="9" height="9" fill="#EDF5FD" stroke="#2470BB" stroke-width="1"/><rect x="435" y="855" width="9" height="9" fill="#EDF5FD" stroke="#2470BB" stroke-width="1"/><rect x="444" y="855" width="9" height="9" fill="#EDF5FD" stroke="#2470BB" stroke-width="1"/><rect x="417" y="864" width="9" height="9" fill="#EDF5FD" stroke="#2470BB" stroke-width="1"/><rect x="426" y="864" width="9" height="9" fill="#EDF5FD" stroke="#2470BB" stroke-width="1"/><rect x="435" y="864" width="9" height="9" fill="#EDF5FD" stroke="#2470BB" stroke-width="1"/><rect x="444" y="864" width="9" height="9" fill="#EDF5FD" stroke="#2470BB" stroke-width="1"/><rect x="417" y="873" width="9" height="9" fill="#EDF5FD" stroke="#2470BB" stroke-width="1"/><rect x="426" y="873" width="9" height="9" fill="#EDF5FD" stroke="#2470BB" stroke-width="1"/><rect x="435" y="873" width="9" height="9" fill="#EDF5FD" stroke="#2470BB" stroke-width="1"/><rect x="444" y="873" width="9" height="9" fill="#EDF5FD" stroke="#2470BB" stroke-width="1"/><rect x="104" y="912" width="426" height="56" rx="10" fill="#F1F4F7" stroke="#DCE4EC" stroke-width="1.5"/><text x="122" y="947" font-size="20" fill="#182C40" font-weight="400" text-anchor="start">Elementwise activation</text><rect x="104" y="988" width="426" height="56" rx="10" fill="#EDF5FD" stroke="#DCE4EC" stroke-width="1.5"/><text x="122" y="1023" font-size="20" fill="#182C40" font-weight="700" text-anchor="start">MLP Linear 2 · row split</text><rect x="417" y="998" width="9" height="9" fill="#EDF5FD" stroke="#2470BB" stroke-width="1"/><rect x="426" y="998" width="9" height="9" fill="#EDF5FD" stroke="#2470BB" stroke-width="1"/><rect x="435" y="998" width="9" height="9" fill="#EDF5FD" stroke="#2470BB" stroke-width="1"/><rect x="444" y="998" width="9" height="9" fill="#EDF5FD" stroke="#2470BB" stroke-width="1"/><rect x="417" y="1007" width="9" height="9" fill="#EDF5FD" stroke="#2470BB" stroke-width="1"/><rect x="426" y="1007" width="9" height="9" fill="#EDF5FD" stroke="#2470BB" stroke-width="1"/><rect x="435" y="1007" width="9" height="9" fill="#EDF5FD" stroke="#2470BB" stroke-width="1"/><rect x="444" y="1007" width="9" height="9" fill="#EDF5FD" stroke="#2470BB" stroke-width="1"/><rect x="417" y="1016" width="9" height="9" fill="#EDF5FD" stroke="#2470BB" stroke-width="1"/><rect x="426" y="1016" width="9" height="9" fill="#EDF5FD" stroke="#2470BB" stroke-width="1"/><rect x="435" y="1016" width="9" height="9" fill="#EDF5FD" stroke="#2470BB" stroke-width="1"/><rect x="444" y="1016" width="9" height="9" fill="#EDF5FD" stroke="#2470BB" stroke-width="1"/><rect x="417" y="1025" width="9" height="9" fill="#EDF5FD" stroke="#2470BB" stroke-width="1"/><rect x="426" y="1025" width="9" height="9" fill="#EDF5FD" stroke="#2470BB" stroke-width="1"/><rect x="435" y="1025" width="9" height="9" fill="#EDF5FD" stroke="#2470BB" stroke-width="1"/><rect x="444" y="1025" width="9" height="9" fill="#EDF5FD" stroke="#2470BB" stroke-width="1"/><path d="M318,745 L318,749" fill="none" stroke="#5C6C7C" stroke-width="2" marker-end="url(#ported-arrow)"/><path d="M318,821 L318,825" fill="none" stroke="#5C6C7C" stroke-width="2" marker-end="url(#ported-arrow)"/><path d="M318,897 L318,901" fill="none" stroke="#5C6C7C" stroke-width="2" marker-end="url(#ported-arrow)"/><path d="M318,973 L318,977" fill="none" stroke="#5C6C7C" stroke-width="2" marker-end="url(#ported-arrow)"/><rect x="104" y="1124" width="426" height="56" rx="10" fill="#F1F4F7" stroke="#DCE4EC" stroke-width="1.5"/><text x="122" y="1159" font-size="20" fill="#182C40" font-weight="400" text-anchor="start">Add residual → next layer</text><path d="M268,270 H72 V712 H96" fill="none" stroke="#5C6C7C" stroke-width="1.5" marker-end="url(#ported-arrow)"/><path d="M104,712 H83 V1152 H96" fill="none" stroke="#5C6C7C" stroke-width="1.5" marker-end="url(#ported-arrow)"/><g opacity="1"><rect x="191" y="620" width="254" height="44" rx="10" fill="#F3EEF8" stroke="#F3EEF8" stroke-width="1.5"/><text x="318" y="649" font-size="20" fill="#7954A3" font-weight="700" text-anchor="middle">Full summed result</text><path d="M318,667 L318,676" fill="none" stroke="#5C6C7C" stroke-width="2" marker-end="url(#ported-arrow)"/></g><g opacity="1"><rect x="191" y="1066" width="254" height="44" rx="10" fill="#F3EEF8" stroke="#F3EEF8" stroke-width="1.5"/><text x="318" y="1095" font-size="20" fill="#7954A3" font-weight="700" text-anchor="middle">Full summed result</text><path d="M318,1113 L318,1122" fill="none" stroke="#5C6C7C" stroke-width="2" marker-end="url(#ported-arrow)"/></g><rect x="624" y="177" width="528" height="1000" rx="10" fill="white" stroke="#B55B22" stroke-width="1.5"/><text x="648" y="211" font-size="24" fill="#B55B22" font-weight="700" text-anchor="start">GPU 1</text><text x="888" y="230" font-size="20" fill="#182C40" font-weight="700" text-anchor="middle">Same input X</text><rect x="852" y="245" width="18" height="18" fill="#F1F4F7" stroke="#aabcc9" stroke-width="1"/><rect x="870" y="245" width="18" height="18" fill="#F1F4F7" stroke="#aabcc9" stroke-width="1"/><rect x="888" y="245" width="18" height="18" fill="#F1F4F7" stroke="#aabcc9" stroke-width="1"/><rect x="906" y="245" width="18" height="18" fill="#F1F4F7" stroke="#aabcc9" stroke-width="1"/><rect x="852" y="263" width="18" height="18" fill="#F1F4F7" stroke="#aabcc9" stroke-width="1"/><rect x="870" y="263" width="18" height="18" fill="#F1F4F7" stroke="#aabcc9" stroke-width="1"/><rect x="888" y="263" width="18" height="18" fill="#F1F4F7" stroke="#aabcc9" stroke-width="1"/><rect x="906" y="263" width="18" height="18" fill="#F1F4F7" stroke="#aabcc9" stroke-width="1"/><rect x="680" y="314" width="426" height="56" rx="10" fill="#F1F4F7" stroke="#DCE4EC" stroke-width="1.5"/><text x="698" y="349" font-size="20" fill="#182C40" font-weight="400" text-anchor="start">Normalization (on each GPU)</text><rect x="680" y="390" width="426" height="56" rx="10" fill="#FFF2E6" stroke="#DCE4EC" stroke-width="1.5"/><text x="698" y="425" font-size="20" fill="#182C40" font-weight="700" text-anchor="start">QKV Projection · column split</text><rect x="993" y="400" width="9" height="9" fill="#FFF2E6" stroke="#B55B22" stroke-width="1"/><rect x="1002" y="400" width="9" height="9" fill="#FFF2E6" stroke="#B55B22" stroke-width="1"/><rect x="993" y="409" width="9" height="9" fill="#FFF2E6" stroke="#B55B22" stroke-width="1"/><rect x="1002" y="409" width="9" height="9" fill="#FFF2E6" stroke="#B55B22" stroke-width="1"/><rect x="993" y="418" width="9" height="9" fill="#FFF2E6" stroke="#B55B22" stroke-width="1"/><rect x="1002" y="418" width="9" height="9" fill="#FFF2E6" stroke="#B55B22" stroke-width="1"/><rect x="993" y="427" width="9" height="9" fill="#FFF2E6" stroke="#B55B22" stroke-width="1"/><rect x="1002" y="427" width="9" height="9" fill="#FFF2E6" stroke="#B55B22" stroke-width="1"/><rect x="1020" y="400" width="9" height="9" fill="#FFF2E6" stroke="#B55B22" stroke-width="1"/><rect x="1029" y="400" width="9" height="9" fill="#FFF2E6" stroke="#B55B22" stroke-width="1"/><rect x="1020" y="409" width="9" height="9" fill="#FFF2E6" stroke="#B55B22" stroke-width="1"/><rect x="1029" y="409" width="9" height="9" fill="#FFF2E6" stroke="#B55B22" stroke-width="1"/><rect x="1020" y="418" width="9" height="9" fill="#FFF2E6" stroke="#B55B22" stroke-width="1"/><rect x="1029" y="418" width="9" height="9" fill="#FFF2E6" stroke="#B55B22" stroke-width="1"/><rect x="1020" y="427" width="9" height="9" fill="#FFF2E6" stroke="#B55B22" stroke-width="1"/><rect x="1029" y="427" width="9" height="9" fill="#FFF2E6" stroke="#B55B22" stroke-width="1"/><rect x="1047" y="400" width="9" height="9" fill="#FFF2E6" stroke="#B55B22" stroke-width="1"/><rect x="1056" y="400" width="9" height="9" fill="#FFF2E6" stroke="#B55B22" stroke-width="1"/><rect x="1047" y="409" width="9" height="9" fill="#FFF2E6" stroke="#B55B22" stroke-width="1"/><rect x="1056" y="409" width="9" height="9" fill="#FFF2E6" stroke="#B55B22" stroke-width="1"/><rect x="1047" y="418" width="9" height="9" fill="#FFF2E6" stroke="#B55B22" stroke-width="1"/><rect x="1056" y="418" width="9" height="9" fill="#FFF2E6" stroke="#B55B22" stroke-width="1"/><rect x="1047" y="427" width="9" height="9" fill="#FFF2E6" stroke="#B55B22" stroke-width="1"/><rect x="1056" y="427" width="9" height="9" fill="#FFF2E6" stroke="#B55B22" stroke-width="1"/><rect x="680" y="466" width="426" height="56" rx="10" fill="#FFF2E6" stroke="#DCE4EC" stroke-width="1.5"/><text x="698" y="501" font-size="20" fill="#182C40" font-weight="700" text-anchor="start">Local head attention</text><rect x="993" y="476" width="11" height="11" fill="#FFF2E6" stroke="#B55B22" stroke-width="1"/><rect x="1004" y="476" width="11" height="11" fill="#FFF2E6" stroke="#B55B22" stroke-width="1"/><rect x="993" y="487" width="11" height="11" fill="#FFF2E6" stroke="#B55B22" stroke-width="1"/><rect x="1004" y="487" width="11" height="11" fill="#FFF2E6" stroke="#B55B22" stroke-width="1"/><rect x="680" y="542" width="426" height="56" rx="10" fill="#FFF2E6" stroke="#DCE4EC" stroke-width="1.5"/><text x="698" y="577" font-size="20" fill="#182C40" font-weight="700" text-anchor="start">Output Projection · row split</text><rect x="993" y="552" width="11" height="11" fill="#FFF2E6" stroke="#B55B22" stroke-width="1"/><rect x="1004" y="552" width="11" height="11" fill="#FFF2E6" stroke="#B55B22" stroke-width="1"/><rect x="1015" y="552" width="11" height="11" fill="#FFF2E6" stroke="#B55B22" stroke-width="1"/><rect x="1026" y="552" width="11" height="11" fill="#FFF2E6" stroke="#B55B22" stroke-width="1"/><rect x="993" y="563" width="11" height="11" fill="#FFF2E6" stroke="#B55B22" stroke-width="1"/><rect x="1004" y="563" width="11" height="11" fill="#FFF2E6" stroke="#B55B22" stroke-width="1"/><rect x="1015" y="563" width="11" height="11" fill="#FFF2E6" stroke="#B55B22" stroke-width="1"/><rect x="1026" y="563" width="11" height="11" fill="#FFF2E6" stroke="#B55B22" stroke-width="1"/><path d="M894,286 L894,303" fill="none" stroke="#5C6C7C" stroke-width="2" marker-end="url(#ported-arrow)"/><path d="M894,375 L894,379" fill="none" stroke="#5C6C7C" stroke-width="2" marker-end="url(#ported-arrow)"/><path d="M894,451 L894,455" fill="none" stroke="#5C6C7C" stroke-width="2" marker-end="url(#ported-arrow)"/><path d="M894,527 L894,531" fill="none" stroke="#5C6C7C" stroke-width="2" marker-end="url(#ported-arrow)"/><rect x="680" y="684" width="426" height="56" rx="10" fill="#F1F4F7" stroke="#DCE4EC" stroke-width="1.5"/><text x="698" y="719" font-size="20" fill="#182C40" font-weight="400" text-anchor="start">Add residual</text><rect x="680" y="760" width="426" height="56" rx="10" fill="#F1F4F7" stroke="#DCE4EC" stroke-width="1.5"/><text x="698" y="795" font-size="20" fill="#182C40" font-weight="400" text-anchor="start">Normalization (on each GPU)</text><rect x="680" y="836" width="426" height="56" rx="10" fill="#FFF2E6" stroke="#DCE4EC" stroke-width="1.5"/><text x="698" y="871" font-size="20" fill="#182C40" font-weight="700" text-anchor="start">MLP Linear 1 · column split</text><rect x="993" y="846" width="9" height="9" fill="#FFF2E6" stroke="#B55B22" stroke-width="1"/><rect x="1002" y="846" width="9" height="9" fill="#FFF2E6" stroke="#B55B22" stroke-width="1"/><rect x="1011" y="846" width="9" height="9" fill="#FFF2E6" stroke="#B55B22" stroke-width="1"/><rect x="1020" y="846" width="9" height="9" fill="#FFF2E6" stroke="#B55B22" stroke-width="1"/><rect x="993" y="855" width="9" height="9" fill="#FFF2E6" stroke="#B55B22" stroke-width="1"/><rect x="1002" y="855" width="9" height="9" fill="#FFF2E6" stroke="#B55B22" stroke-width="1"/><rect x="1011" y="855" width="9" height="9" fill="#FFF2E6" stroke="#B55B22" stroke-width="1"/><rect x="1020" y="855" width="9" height="9" fill="#FFF2E6" stroke="#B55B22" stroke-width="1"/><rect x="993" y="864" width="9" height="9" fill="#FFF2E6" stroke="#B55B22" stroke-width="1"/><rect x="1002" y="864" width="9" height="9" fill="#FFF2E6" stroke="#B55B22" stroke-width="1"/><rect x="1011" y="864" width="9" height="9" fill="#FFF2E6" stroke="#B55B22" stroke-width="1"/><rect x="1020" y="864" width="9" height="9" fill="#FFF2E6" stroke="#B55B22" stroke-width="1"/><rect x="993" y="873" width="9" height="9" fill="#FFF2E6" stroke="#B55B22" stroke-width="1"/><rect x="1002" y="873" width="9" height="9" fill="#FFF2E6" stroke="#B55B22" stroke-width="1"/><rect x="1011" y="873" width="9" height="9" fill="#FFF2E6" stroke="#B55B22" stroke-width="1"/><rect x="1020" y="873" width="9" height="9" fill="#FFF2E6" stroke="#B55B22" stroke-width="1"/><rect x="680" y="912" width="426" height="56" rx="10" fill="#F1F4F7" stroke="#DCE4EC" stroke-width="1.5"/><text x="698" y="947" font-size="20" fill="#182C40" font-weight="400" text-anchor="start">Elementwise activation</text><rect x="680" y="988" width="426" height="56" rx="10" fill="#FFF2E6" stroke="#DCE4EC" stroke-width="1.5"/><text x="698" y="1023" font-size="20" fill="#182C40" font-weight="700" text-anchor="start">MLP Linear 2 · row split</text><rect x="993" y="998" width="9" height="9" fill="#FFF2E6" stroke="#B55B22" stroke-width="1"/><rect x="1002" y="998" width="9" height="9" fill="#FFF2E6" stroke="#B55B22" stroke-width="1"/><rect x="1011" y="998" width="9" height="9" fill="#FFF2E6" stroke="#B55B22" stroke-width="1"/><rect x="1020" y="998" width="9" height="9" fill="#FFF2E6" stroke="#B55B22" stroke-width="1"/><rect x="993" y="1007" width="9" height="9" fill="#FFF2E6" stroke="#B55B22" stroke-width="1"/><rect x="1002" y="1007" width="9" height="9" fill="#FFF2E6" stroke="#B55B22" stroke-width="1"/><rect x="1011" y="1007" width="9" height="9" fill="#FFF2E6" stroke="#B55B22" stroke-width="1"/><rect x="1020" y="1007" width="9" height="9" fill="#FFF2E6" stroke="#B55B22" stroke-width="1"/><rect x="993" y="1016" width="9" height="9" fill="#FFF2E6" stroke="#B55B22" stroke-width="1"/><rect x="1002" y="1016" width="9" height="9" fill="#FFF2E6" stroke="#B55B22" stroke-width="1"/><rect x="1011" y="1016" width="9" height="9" fill="#FFF2E6" stroke="#B55B22" stroke-width="1"/><rect x="1020" y="1016" width="9" height="9" fill="#FFF2E6" stroke="#B55B22" stroke-width="1"/><rect x="993" y="1025" width="9" height="9" fill="#FFF2E6" stroke="#B55B22" stroke-width="1"/><rect x="1002" y="1025" width="9" height="9" fill="#FFF2E6" stroke="#B55B22" stroke-width="1"/><rect x="1011" y="1025" width="9" height="9" fill="#FFF2E6" stroke="#B55B22" stroke-width="1"/><rect x="1020" y="1025" width="9" height="9" fill="#FFF2E6" stroke="#B55B22" stroke-width="1"/><path d="M894,745 L894,749" fill="none" stroke="#5C6C7C" stroke-width="2" marker-end="url(#ported-arrow)"/><path d="M894,821 L894,825" fill="none" stroke="#5C6C7C" stroke-width="2" marker-end="url(#ported-arrow)"/><path d="M894,897 L894,901" fill="none" stroke="#5C6C7C" stroke-width="2" marker-end="url(#ported-arrow)"/><path d="M894,973 L894,977" fill="none" stroke="#5C6C7C" stroke-width="2" marker-end="url(#ported-arrow)"/><rect x="680" y="1124" width="426" height="56" rx="10" fill="#F1F4F7" stroke="#DCE4EC" stroke-width="1.5"/><text x="698" y="1159" font-size="20" fill="#182C40" font-weight="400" text-anchor="start">Add residual → next layer</text><path d="M844,270 H648 V712 H672" fill="none" stroke="#5C6C7C" stroke-width="1.5" marker-end="url(#ported-arrow)"/><path d="M680,712 H659 V1152 H672" fill="none" stroke="#5C6C7C" stroke-width="1.5" marker-end="url(#ported-arrow)"/><g opacity="1"><rect x="767" y="620" width="254" height="44" rx="10" fill="#F3EEF8" stroke="#F3EEF8" stroke-width="1.5"/><text x="894" y="649" font-size="20" fill="#7954A3" font-weight="700" text-anchor="middle">Full summed result</text><path d="M894,667 L894,676" fill="none" stroke="#5C6C7C" stroke-width="2" marker-end="url(#ported-arrow)"/></g><g opacity="1"><rect x="767" y="1066" width="254" height="44" rx="10" fill="#F3EEF8" stroke="#F3EEF8" stroke-width="1.5"/><text x="894" y="1095" font-size="20" fill="#7954A3" font-weight="700" text-anchor="middle">Full summed result</text><path d="M894,1113 L894,1122" fill="none" stroke="#5C6C7C" stroke-width="2" marker-end="url(#ported-arrow)"/></g><text x="600" y="478" font-size="17" fill="#5C6C7C" font-weight="400" text-anchor="middle">Mid-layer</text><text x="600" y="503" font-size="17" fill="#5C6C7C" font-weight="400" text-anchor="middle">All-Gather</text><text x="600" y="528" font-size="19" fill="#2470BB" font-weight="700" text-anchor="middle">skipped</text><text x="600" y="924" font-size="17" fill="#5C6C7C" font-weight="400" text-anchor="middle">Mid-layer</text><text x="600" y="949" font-size="17" fill="#5C6C7C" font-weight="400" text-anchor="middle">All-Gather</text><text x="600" y="974" font-size="19" fill="#2470BB" font-weight="700" text-anchor="middle">skipped</text><g opacity="1"><path d="M318,598 V606 H560 V616 M894,598 V606 H640 V616" fill="none" stroke="#7954A3" stroke-width="2" marker-end="url(#ported-arrow)"/><path d="M446,641 H501 M699,641 H754" fill="none" stroke="#7954A3" stroke-width="2" marker-start="url(#ported-arrow)" marker-end="url(#ported-arrow)"/><rect x="503" y="619" width="194" height="44" rx="10" fill="#F3EEF8" stroke="#F3EEF8" stroke-width="1.5"/><text x="600" y="648" font-size="20" fill="#7954A3" font-weight="700" text-anchor="middle">All-Reduce</text></g><g opacity="1"><path d="M318,1044 V1052 H560 V1062 M894,1044 V1052 H640 V1062" fill="none" stroke="#7954A3" stroke-width="2" marker-end="url(#ported-arrow)"/><path d="M446,1087 H501 M699,1087 H754" fill="none" stroke="#7954A3" stroke-width="2" marker-start="url(#ported-arrow)" marker-end="url(#ported-arrow)"/><rect x="503" y="1065" width="194" height="44" rx="10" fill="#F3EEF8" stroke="#F3EEF8" stroke-width="1.5"/><text x="600" y="1094" font-size="20" fill="#7954A3" font-weight="700" text-anchor="middle">All-Reduce</text></g><g opacity="1"><text x="600" y="1221" font-size="22" fill="#7954A3" font-weight="700" text-anchor="middle">One layer forward: skip intermediate gathers, sum outputs twice</text></g><g opacity=".12"><rect x="118" y="1250" width="320" height="57" rx="10" fill="#F1F4F7" stroke="#DCE4EC" stroke-width="1.5"/><rect x="131" y="1265" width="320" height="57" rx="10" fill="#F1F4F7" stroke="#DCE4EC" stroke-width="1.5"/><rect x="144" y="1280" width="320" height="57" rx="10" fill="#F1F4F7" stroke="#DCE4EC" stroke-width="1.5"/><text x="312" y="1317" font-size="20" fill="#182C40" font-weight="700" text-anchor="middle">Repeat the layer structure</text><text x="560" y="1280" font-size="26" fill="#182C40" font-weight="700" text-anchor="start">L layers → 2L All-Reduces</text><text x="560" y="1323" font-size="21" fill="#5C6C7C" font-weight="400" text-anchor="start">Communication savings accumulate across layers.</text></g></g></g><path d="M48,1439 H1152" stroke="#DCE4EC" stroke-width="2"/><text x="48" y="1477" fill="#5C6C7C" font-size="21" font-weight="400" text-anchor="start" data-max-width="1104">One basic TP layer needs two All-Reduce operations in the forward pass.</text></svg>